<svg xmlns="http://www.w3.org/2000/svg" version="1.1" xmlns:xlink="http://www.w3.org/1999/xlink" width="140" height="39" viewBox="0 0 500 141"><svg xml:space="preserve" width="500" height="141" data-version="2" data-id="lg_jb3GIPX58ioMDQJiVx" viewBox="0 0 610 141" x="0" y="0"><rect width="100%" height="100%" fill="transparent"></rect><path fill="currentColor" d="M146.04 61.67q.49-.24.9-.24.45 0 .7.3.24.31.24.76 0 .58-.45 1.29-.45.72-1.39 1.3-2.38 1.64-4.78 3.07-2.4 1.44-4.9 2.71-2.13 1.11-4.51 2.13-2.38 1.03-4.86 1.85-2.48.82-5.01 1.31-2.52.49-4.9.49h-.68q-.34 0-.67-.04-2.42 3.16-4.1 5.33-1.69 2.18-2.94 3.84-1.25 1.66-2.23 2.97-.99 1.31-2.05 2.73-1.07 1.41-2.36 3.14-1.29 1.72-3.14 4.14 8.08 1.35 16.12 3.01 8.04 1.67 15.55 3.14 7.5 1.48 14.25 2.48 6.75 1.01 12.28 1.05 1.03 0 1.54.37t.51.86q0 .82-1.25 1.58-1.25.76-3.87.76-5.75-.12-12.55-1.19-6.81-1.07-14.28-2.52-7.46-1.46-15.34-3.08-7.87-1.62-15.71-2.85l-.9 1.19q-6.27 8.16-11.75 14.6-5.48 6.44-10.46 10.91t-9.56 6.85q-4.57 2.38-9 2.38-5.45 0-9.31-.96-3.85-.97-6.29-2.65-2.45-1.68-3.57-3.96-1.13-2.27-1.13-4.9 0-3.12 1.43-6.54 1.44-3.43 3.98-6.75 2.55-3.32 6.03-6.32 3.49-2.99 7.59-5.27 4.1-2.27 8.63-3.63 4.54-1.35 9.21-1.35 5.38 0 10.87.51 5.5.52 11.36 1.38 1.32-1.72 2.26-2.96.94-1.23 1.86-2.39.93-1.17 1.99-2.49l2.63-3.22q1.56-1.9 3.75-4.59 2.2-2.69 5.4-6.58-.78-.33-1.5-.68-.72-.35-1.38-.76-4.51 3.41-8.65 5.85-4.14 2.44-7.87 4-3.74 1.55-7.08 2.27t-6.26.72q-4.79 0-8.51-1.76-3.71-1.77-6.23-4.88-2.52-3.12-3.84-7.33-1.31-4.2-1.31-9.12 0-4.51 1.09-9.35t3.55-9.74q2.46-4.91 6.5-9.75t9.92-9.37q5.89-4.53 13.81-8.63 7.91-4.1 18.17-7.55-3.2-1.48-7.47-2.5-4.26-1.03-9.47-1.66-5.21-.64-11.3-.92-6.09-.29-12.94-.29-13.7 0-29.88.86T6.13 7.16q.21-.16.27-.31.06-.14.06-.22 0-.21-.1-.39-.1-.19-.1-.31 0-.2.33-.53.57 0 1.08.02.52.02 1.09.02 3.65 0 7.98-.27 4.32-.26 9.18-.69 4.86-.44 10.22-.91 5.35-.47 11.05-.9 5.7-.43 11.69-.7 5.99-.26 12.14-.26 11.16 0 22.29 1.17 11.14 1.16 22.05 4.36 5.66-2.09 10.56-3.2 4.9-1.1 9.5-1.1 7.42 0 12.83 1.21 5.42 1.21 8.97 3.11 3.54 1.91 5.27 4.21 1.72 2.3 1.72 4.43 0 1.39-.72 2.62-.72 1.23-2.09 2.16-1.37.92-3.45 1.45-2.07.54-4.77.54-2.1 0-4.6-.43-2.5-.44-5.17-1.13-2.66-.7-5.35-1.6-2.69-.9-5.15-1.85-2.95-1.11-5.88-2.36-2.93-1.25-5.93-2.64-9.51 3.61-17.29 7.89-7.77 4.29-13.9 8.95-6.13 4.65-10.64 9.51-4.52 4.86-7.47 9.62-2.95 4.76-4.41 9.25-1.45 4.49-1.45 8.39 0 3.07.79 5.59.8 2.53 2.47 4.35 1.66 1.83 4.2 2.83 2.54 1.01 5.99 1.01 4.63 0 10.85-1.99 6.21-1.99 14.21-6.5-.94-.95-.94-1.89 0-.49.53-1.19t1.41-1.33q.89-.64 1.99-1.11 1.11-.47 2.26-.47 1.39 0 2.83 1.06 4.1-2.7 8.53-5.96t9.39-7.24l-.16 4.67-11.12 14.07q.54.12 1.07.17.53.04 1.11.04 1.84 0 3.87-.45 2.03-.46 4.1-1.21 2.08-.76 4.13-1.73 2.05-.96 3.89-1.95 2.22-1.18 4.35-2.52 2.13-1.33 4.35-2.85m-55.5 39.87q-4.59-.62-9-.96-4.41-.35-8.76-.35-3.93 0-8.05 1.17-4.13 1.16-8.04 3.15-3.92 1.99-7.39 4.58-3.46 2.58-6.07 5.39-2.6 2.81-4.12 5.68-1.52 2.87-1.52 5.37 0 1.89.95 3.47.94 1.58 2.97 2.75 2.03 1.17 5.27 1.82 3.24.66 7.88.66 3.73 0 7.32-1.68 3.59-1.68 6.91-4.41 3.32-2.73 6.36-6.17 3.03-3.45 5.68-6.94 2.64-3.48 4.86-6.72 2.21-3.24 3.89-5.58Zm63.95-81.7q2.58 0 3.71-.64t1.13-1.7q0-.9-.76-2.01-.76-1.11-2.07-2.24-1.31-1.12-3.08-2.19-1.76-1.07-3.79-1.89-2.03-.82-4.23-1.33-2.19-.51-4.32-.51-2.18 0-4.15.18-1.97.19-3.85.58-1.89.38-3.76.98-1.86.59-3.83 1.37.9.37 2.81 1.21 1.91.84 4.43 1.89 2.52 1.05 5.45 2.15 2.94 1.11 5.85 2.03 2.91.93 5.64 1.52 2.73.6 4.82.6m-31.34 41.22q-2.21 2.21-4.33 4.16-2.11 1.95-4.2 3.79l.25.33q.16.21.32.43.17.23.37.43Z"></path><rect width="158.08" height="136.58" x="-79.04" y="-68.29" fill="none" rx="0" ry="0" transform="translate(85.67 70.5)"></rect><path fill="currentColor" d="M146.04 65.08q-.29.16-.53.16-.41 0-.62-.35-.2-.35-.2-.88 0-.57.28-1.23.29-.66 1.07-1.11l15.17-8.94q2.83-1.64 6.03-2.83 3.2-1.19 6.5-1.95 3.31-.76 6.55-1.11 3.24-.34 6.11-.34 1.64 0 3.07.22 1.44.23 2.49.66 1.04.43 1.64 1.04.59.62.59 1.4 0 .57-.41.82-.41.24-.96.35-.56.1-1.15.14-.6.04-.92.21-.25.78-.78 2.4-.54 1.62-1.07 3.32-.53 1.7-.96 3.03-.43 1.34-.48 1.54-.53 1.72-1.45 4.37-.92 2.64-2.03 7.07.04 0 .92-.47t2.3-1.25q1.41-.78 3.22-1.8 1.8-1.03 3.73-2.09l9.8-5.79q.58-.33.99-.33.45 0 .69.31.25.31.25.76 0 .57-.45 1.33-.45.76-1.48 1.34l-21.82 12.79q-.82.5-1.52.7-.69.21-1.27.21-.82 0-1.39-.37-.58-.37-.94-1.03-.37-.66-.56-1.5-.18-.84-.18-1.78 0-1.03.2-2.05.21-1.03.54-1.97-1.19 2.34-2.77 4.06-1.58 1.72-3.37 2.89-1.78 1.17-3.67 1.75-1.88.57-3.69.57-1.8 0-3.4-.57-1.6-.58-2.81-1.71-1.21-1.12-1.91-2.81-.7-1.68-.7-3.89 0-1.32.27-2.91.27-1.6.72-3.25.45-1.64 1.02-3.21.58-1.58 1.19-2.9Zm37.28-15.1q-3.28 0-6.27 1.11-3 1.11-5.56 2.91-2.56 1.81-4.64 4.12-2.07 2.32-3.52 4.76-1.46 2.44-2.26 4.82-.8 2.38-.8 4.27 0 2.09.92 3.38.93 1.29 3.02 1.29 1.23 0 2.69-.76 1.45-.75 2.95-2.01 1.5-1.25 2.95-2.83 1.46-1.58 2.69-3.2t2.15-3.15q.92-1.54 1.33-2.69Z"></path><rect width="61.19" height="32.85" x="-30.59" y="-16.43" fill="none" rx="0" ry="0" transform="translate(175.78 63.42)"></rect><path fill="currentColor" d="M295.21 61.67q.54-.2.86-.2.58 0 1.05.28.47.29.47.82 0 .58-1.23 1.58-1.23 1.01-2.99 2.16-1.77 1.15-3.65 2.27-1.89 1.13-3.24 1.95-1.81 1.19-4.06 2.85-2.26 1.66-4.66 3.22-2.4 1.56-4.72 2.65-2.31 1.08-4.2 1.08-1.68 0-2.85-1.21-1.17-1.21-1.17-3.87 0-1.6.49-3.75.49-2.16 1.64-4.99 1.36-3.36 2.36-5.9 1.01-2.55 1.66-4.35.66-1.81.99-2.98.32-1.16.32-1.82 0-1.4-1.02-1.4-1.03 0-2.87 1.34-1.85 1.33-4.12 3.5-2.28 2.18-4.76 4.99t-4.74 5.8q-2.25 3-4.06 5.91-1.8 2.91-2.75 5.29-.16.41-.61.8-.45.39-1.05.7-.59.3-1.29.49-.7.18-1.35.18-1.11 0-1.93-.63-.82-.64-.82-2.2 0-1.31.51-3.01.51-1.7 1.01-3.22.69-2.46 1.49-4.99.8-2.52 1.5-4.61.82-2.42 1.64-4.72.37-.61.8-1.33.43-.72.76-1.46.33-.73.55-1.45.23-.72.23-1.29 0-1.03-.95-1.03-1.92 0-4.4 1.38-2.49 1.37-5.13 3.56-2.65 2.2-5.27 4.97-2.63 2.76-4.84 5.57-2.22 2.81-3.82 5.38-1.6 2.56-2.21 4.37-.37 1.1-.68 1.92-.31.82-.67 1.36-.37.53-.91.8-.53.26-1.39.26-1.72 0-2.32-.96-.59-.96-.59-2.48 0-.7.41-2.16.41-1.45 1.08-3.34.68-1.88 1.5-4.08.82-2.19 1.66-4.39.84-2.19 1.62-4.24.78-2.05 1.31-3.65l-19.85 11.69q-.53.28-1.02.28t-.84-.28q-.35-.29-.35-.78 0-.54.51-1.23.51-.7 1.7-1.4l14.65-8.61q.53-.41 1.25-.82.71-.41 1.51-.74t1.62-.53q.82-.21 1.64-.21.91 0 1.62.43.72.43 1.21 1.07.5.63.76 1.41.27.78.27 1.48 0 .74-.1 1.46-.1.71-.41 1.76-.31 1.05-.84 2.56-.54 1.52-1.4 3.9 1.44-1.93 3.02-4 1.58-2.07 3.34-4.06 1.76-1.99 3.75-3.79 1.99-1.81 4.21-3.16 2.21-1.36 4.69-2.15 2.48-.8 5.23-.8.82 0 1.62.38.8.39 1.44 1.21.63.83 1.02 2.1t.39 2.99q0 2.01-.59 4.62-.6 2.6-2.03 5.92 2.91-4.26 5.88-7.16 2.98-2.89 5.79-4.77 2.81-1.89 5.35-2.9 2.54-1 4.59-1.49 1.15 0 2.42.33 1.27.32 2.3.96 1.03.64 1.7 1.62.68.98.68 2.3 0 .37-.04.73-.04.37-.17.78-.49 1.73-1.35 3.72-.86 1.99-1.85 4.04-.98 2.05-2.03 4.04-1.04 1.99-1.86 3.73-.82 1.74-1.36 3.12-.53 1.37-.53 2.15 0 .98.74.98.61 0 1.91-.78 1.29-.78 2.97-1.94 1.68-1.17 3.65-2.57 1.97-1.39 3.94-2.62Z"></path><rect width="95.85" height="33.46" x="-47.92" y="-16.73" fill="none" rx="0" ry="0" transform="translate(250.16 64.1)"></rect><path fill="currentColor" d="M295.21 65.08q-.41.28-.94.28t-.86-.3q-.33-.31-.33-.8 0-.54.47-1.21.47-.68 1.66-1.38l10.38-6.11q1.15-3.24 2.97-5.6 1.83-2.36 4.02-3.89 2.2-1.54 4.6-2.3 2.4-.76 4.65-.76 2.3 0 3.8 1.21 1.49 1.21 1.49 3.75 0 1.56-1.13 3.26-1.12 1.71-3.07 3.37-1.95 1.66-4.57 3.09-2.63 1.44-5.58 2.42 0 1.97-.06 3.74-.07 1.76-.07 3.32 0 1.31.09 2.4.08 1.08.34 1.84.27.76.74 1.19.47.43 1.21.43 1.15 0 2.77-.92t4.08-2.36q2.22-1.31 5.66-3.28l8.41-4.8q.17-.12.45-.12.45 0 .8.39.35.39.35.96 0 .49-.35 1.07-.35.57-1.25 1.11-4.06 2.42-7.87 4.9-3.82 2.48-7.2 4.51-3.39 2.03-6.26 3.32-2.87 1.29-5 1.29-1.44 0-2.52-.61-1.09-.62-1.85-1.97t-1.15-3.55q-.39-2.19-.39-5.35 0-.49.06-1.58.07-1.09.21-2.34.14-1.25.35-2.44.2-1.19.49-1.84-.29.16-.84.49-.55.33-1.29.76t-1.56.92l-1.64.98Zm27.48-16.78q.09-.25.09-.53 0-1.03-.35-1.52t-1.17-.49q-.95 0-2.18.72-1.23.71-2.4 2.11-1.16 1.39-2.09 3.48-.92 2.1-1.25 4.8 1.68-.86 3.28-1.99 1.6-1.12 2.89-2.29 1.3-1.17 2.14-2.3.84-1.13 1.04-1.99"></path><rect width="44.46" height="36.09" x="-22.23" y="-18.05" fill="none" rx="0" ry="0" transform="translate(315.81 61.55)"></rect><path fill="currentColor" d="M363.5 52.4q0 1.73.25 2.55.25.82.55 1.45.31.64.58 1.4.26.75.26 2.35 0 1.11-.22 2.49-.23 1.37-.84 2.83-.62 1.45-1.72 2.87-1.11 1.41-2.83 2.52l16.07-9.19q.29-.16.58-.16.45 0 .8.35.35.35.35.92 0 .45-.39 1.11-.39.65-1.34 1.19-5.04 2.87-8.67 4.98-3.63 2.11-6.2 3.63-2.56 1.52-4.2 2.52-1.64 1.01-2.75 1.66-1.97 1.19-3.73 1.6-1.76.41-3.49.41-1.31 0-1.9-.45-.6-.45-.58-1 .02-.56.64-1.03.61-.47 1.76-.47 2.01 0 3.9-1.37 1.89-1.38 3.34-3.74 1.46-2.36 2.34-5.51.88-3.16.88-6.69 0-.53.23-2.05.22-1.52.71-3.28.5-1.76 1.3-3.45.8-1.68 1.9-2.54l-25.14 16.78q-.41.28-.86.28t-.74-.32q-.29-.33-.29-.83 0-.57.43-1.27.44-.69 1.46-1.27 6.6-4.47 11.1-7.44 4.49-2.98 7.32-4.82l5.74-3.9q1.27-.53 2.67-.84 1.39-.31 2.58-.31 1.31 0 2.15.43.84.43.84 1.38 0 .33-.76 1.06-.75.74-1.66 1.67-.9.92-1.66 1.86-.76.95-.76 1.64"></path><rect width="43.28" height="35.52" x="-21.64" y="-17.76" fill="none" rx="0" ry="0" transform="translate(356.19 62.62)"></rect><path fill="currentColor" d="M414.12 45.18q2.33 0 4.16.95 1.83.94 3.08 2.56t1.9 3.79q.66 2.18.66 4.64 0 1.43-.33 3.16-.33 1.72-.94 3.55-.62 1.82-1.5 3.63-.88 1.8-1.95 3.32.78-.41 1.89-1.03 1.11-.61 2.36-1.33 1.25-.72 2.62-1.5l2.69-1.52 6.36-3.73q.28-.16.78-.16.94 0 .94.98 0 1.36-1.72 2.59-1.48.98-3.86 2.46-2.38 1.47-5.15 2.89-2.76 1.41-5.62 2.5-2.85 1.09-5.31 1.25-3.2 2.38-7.5 3.84-4.31 1.45-10.05 1.45-2.83 0-4.78-.49-1.95-.49-3.14-1.44-1.19-.94-1.72-2.31-.53-1.38-.53-3.18 0-2.63 1.06-5.62 1.07-2.99 2.65-5.84 1.58-2.86 3.38-5.32 1.81-2.46 3.28-4.06-1.31 1.15-3.71 2.75t-5.41 3.43q-3.02 1.82-6.4 3.79-3.38 1.97-6.71 3.9-.49.2-.9.2-.53 0-.82-.31-.29-.3-.29-.8 0-.57.48-1.21.47-.63 1.53-1.29 6.24-3.65 10.63-6.29 4.38-2.65 7.58-4.5 3.2-1.84 5.58-2.95t4.58-1.72q2.19-.62 4.57-.82 2.38-.21 5.58-.21m-16.41 30.77q2.58 0 5.05-1.07 2.46-1.07 4.79-2.91-.53-.62-.73-1.4-.21-.78-.21-1.6 0-1.43.94-2.15.95-.72 2.26-.72 1.39 0 2.71.82 1.31-.94 2.5-2.25 1.19-1.32 2.07-2.79.88-1.48 1.39-3.04.52-1.56.52-3.03 0-1.27-.47-2.44-.48-1.17-1.52-2.03-1.05-.87-2.75-1.38-1.7-.51-4.12-.51-2.01 0-4 1.07-1.99 1.06-3.82 2.85-1.82 1.78-3.4 4.06-1.58 2.27-2.73 4.69-1.15 2.42-1.8 4.76-.66 2.34-.66 4.27 0 2.13.95 3.46.94 1.34 3.03 1.34"></path><rect width="63.25" height="34.29" x="-31.63" y="-17.14" fill="none" rx="0" ry="0" transform="translate(405.71 62.83)"></rect><path fill="currentColor" d="M481.1 48.96q0 1.02-.37 2.4-.37 1.37-.95 2.91-.57 1.54-1.23 3.14-.65 1.6-1.23 3.09-.57 1.5-.94 2.81-.37 1.32-.37 2.22 0 .78.35 1.23.35.45 1.13.45.57 0 1.62-.43 1.04-.43 2.46-1.19 1.41-.76 3.11-1.76 1.71-1.01 3.59-2.16.41-.24.82-.24.45 0 .8.32.35.33.35.82 0 .54-.45 1.13-.45.6-1.52 1.38-5.33 3.97-9.74 6.15-4.41 2.17-7.03 2.17-2.14 0-3.37-.65-1.23-.66-1.23-2.05 0-1.32 1.13-3.33t3.71-4.75q.99-1.65 1.56-3.59.58-1.95.84-3.82.27-1.86.35-3.44.08-1.58.08-2.53 0-1.55-.51-2.4-.51-.84-1.7-.84-1.31 0-2.56 1.17-1.26 1.17-2.51 3.22-1.25 2.05-2.48 4.84t-2.52 6.03q-1.29 3.24-2.65 6.77-1.35 3.53-2.83 7.1-.24.69-.61 1.43t-.84 1.37q-.47.64-1.07 1.05-.59.41-1.25.41-1.56 0-2.34-.7-.78-.69-.78-2.29 0-.45.06-.95.07-.49.39-1.15l7.92-15.87q1.56-4.02 3.34-6.64 1.79-2.63 3.22-4.23l-6.72 4.02q-3.37 2.01-6.48 3.88-3.12 1.86-5.89 3.53-2.77 1.66-4.94 2.93-2.18 1.27-3.65 2.09-1.48.82-2.05 1.07-.33.2-.7.2-.45 0-.76-.33-.31-.32-.31-.86 0-.57.39-1.25t1.38-1.25l10.95-6.4q2.13-1.27 4.3-2.56 2.18-1.29 4.09-2.4 1.9-1.11 3.38-1.97 1.48-.86 2.26-1.31 1.96-1.15 3.83-1.97 1.87-.82 3.71-1.35 1.85-.54 3.76-.83 1.9-.28 3.99-.41.91 0 1.91.56 1.01.55 1.85 1.47.84.93 1.39 2.1.56 1.17.56 2.44"></path><rect width="56.89" height="37" x="-28.45" y="-18.5" fill="none" rx="0" ry="0" transform="translate(462.3 61.39)"></rect><path fill="currentColor" d="M488.27 65.08q-.41.28-.94.28t-.86-.3q-.33-.31-.33-.8 0-.54.47-1.21.47-.68 1.66-1.38l10.38-6.11q1.15-3.24 2.97-5.6 1.83-2.36 4.02-3.89 2.2-1.54 4.6-2.3 2.4-.76 4.65-.76 2.3 0 3.8 1.21 1.49 1.21 1.49 3.75 0 1.56-1.12 3.26-1.13 1.71-3.08 3.37-1.95 1.66-4.57 3.09-2.63 1.44-5.58 2.42 0 1.97-.06 3.74-.07 1.76-.07 3.32 0 1.31.09 2.4.08 1.08.35 1.84.26.76.73 1.19.48.43 1.21.43 1.15 0 2.77-.92t4.08-2.36q2.22-1.31 5.66-3.28l8.41-4.8q.17-.12.45-.12.45 0 .8.39.35.39.35.96 0 .49-.35 1.07-.35.57-1.25 1.11-4.06 2.42-7.87 4.9-3.82 2.48-7.2 4.51-3.39 2.03-6.26 3.32-2.87 1.29-5 1.29-1.44 0-2.52-.61-1.09-.62-1.85-1.97t-1.15-3.55q-.39-2.19-.39-5.35 0-.49.06-1.58.07-1.09.21-2.34.14-1.25.35-2.44.2-1.19.49-1.84-.29.16-.84.49-.55.33-1.29.76t-1.56.92l-1.64.98Zm27.48-16.78q.09-.25.09-.53 0-1.03-.35-1.52t-1.17-.49q-.95 0-2.18.72-1.23.71-2.4 2.11-1.16 1.39-2.09 3.48-.92 2.1-1.25 4.8 1.68-.86 3.28-1.99 1.6-1.12 2.89-2.29 1.3-1.17 2.14-2.3.84-1.13 1.04-1.99"></path><rect width="44.46" height="36.09" x="-22.23" y="-18.05" fill="none" rx="0" ry="0" transform="translate(508.87 61.55)"></rect><path fill="currentColor" d="M600.98 61.67q.29-.16.62-.16.53 0 .9.35t.37.92q0 .53-.41 1.13-.41.59-1.48 1.17-3.07 1.84-5.1 3.09-2.03 1.25-3.45 2.18-1.41.92-2.5 1.64-1.09.72-2.26 1.49-1.16.78-2.7 1.73-1.54.94-3.88 2.33-2.25 1.52-4.65 2.26-2.4.74-4.74.74-2.17 0-4.18-.66-2.01-.65-3.72-2.01-1.7-1.35-2.97-3.38-1.27-2.03-1.97-4.82-3.08 2.21-6.11 4.16-3.04 1.95-5.91 3.39-2.87 1.43-5.51 2.25-2.65.82-4.95.82-2.99 0-4.86-1.9-1.86-1.91-1.86-6.01 0-1.73.37-3.88t1.19-4.74L529 65.08q-.29.16-.49.16-.37 0-.6-.35-.22-.35-.22-.8 0-.61.72-1.5.71-.88 1.8-1.68 1.09-.8 2.38-1.37 1.29-.58 2.48-.58 1.4 0 2.38 1.07.99 1.07.99 3.73 0 1.11-.74 2.3-.74 1.19-1.62 2.42-.89 1.23-1.62 2.46-.74 1.23-.74 2.46 0 1.81 1.68 1.81 1.52 0 3.96-1.03 2.44-1.02 5.35-2.75 2.91-1.72 6.09-3.97 3.18-2.26 6.22-4.68.28-1.72.3-3.49.02-1.76.06-3.71.05-1.95.25-4.16.21-2.22.86-4.88.12-1.15.68-1.73.55-.57 1.78-.57.29 0 .62.25.33.24.57.59.25.35.41.7.17.35.17.51-.09 1.6-.21 2.79t-.24 2.28q-.13 1.08-.23 2.19-.1 1.11-.1 2.5 0 .82.04 1.83.04 1 .12 2.19 1.76-1.27 3.88-2.87 2.11-1.6 4.39-3.32 2.27-1.72 4.65-3.51 2.38-1.78 4.68-3.46.12-.09.55-.33.43-.25.9-.51.47-.27.88-.48.41-.2.54-.2 2.21 0 2.21 2.17 0 .78-.35 1.27-.34.5-.96.95-2.26 1.68-4.8 3.63t-5.15 4q-2.6 2.05-5.12 4.18-2.53 2.13-4.74 4.22 1.44 4.84 3.88 7.43 2.44 2.58 5.76 2.58 1.39 0 2.91-.47 1.52-.47 3.16-1.5 2.38-1.35 4-2.29 1.62-.95 2.95-1.71 1.33-.75 2.58-1.47 1.26-.72 2.86-1.62 1.6-.9 3.79-2.11t5.43-2.98"></path><rect width="75.18" height="36.3" x="-37.59" y="-18.15" fill="none" rx="0" ry="0" transform="translate(565.78 62.89)"></rect></svg></svg>